<?xml version="1.0" encoding="utf-8"?>
<!-- Generator: Adobe Illustrator 16.0.0, SVG Export Plug-In . SVG Version: 6.00 Build 0)  -->
<!DOCTYPE svg PUBLIC "-//W3C//DTD SVG 1.1//EN" "http://www.w3.org/Graphics/SVG/1.1/DTD/svg11.dtd">
<svg version="1.1" id="Layer_1" xmlns="http://www.w3.org/2000/svg" xmlns:xlink="http://www.w3.org/1999/xlink" x="0px" y="0px"
	 width="83px" height="22px" viewBox="0 0 83 22" enable-background="new 0 0 83 22" xml:space="preserve">
<g>
	<path fill="#00ADFF" d="M0,2.89h6.922c0.964,0,1.877,0.088,2.737,0.264c0.86,0.175,1.61,0.478,2.25,0.908
		c0.64,0.43,1.149,1.01,1.527,1.738c0.377,0.728,0.565,1.645,0.565,2.75c0,1.087-0.175,2-0.526,2.737
		c-0.352,0.737-0.834,1.326-1.448,1.764s-1.342,0.75-2.185,0.934c-0.842,0.185-1.755,0.277-2.737,0.277H4.105v7.264H0V2.89z
		 M4.105,10.787h2.738c0.368,0,0.724-0.035,1.066-0.105c0.342-0.07,0.649-0.188,0.921-0.355c0.272-0.167,0.492-0.395,0.659-0.685
		c0.167-0.29,0.25-0.653,0.25-1.092c0-0.474-0.11-0.856-0.329-1.145c-0.22-0.29-0.5-0.514-0.842-0.671
		C8.225,6.575,7.844,6.475,7.422,6.431c-0.421-0.044-0.825-0.066-1.21-0.066H4.105V10.787z"/>
	<path fill="#00ADFF" d="M16.74,2.89h4.106v14.844h7.607v3.791H16.74V2.89z"/>
	<path fill="#00ADFF" d="M29.715,12.208c0-1.491,0.25-2.843,0.75-4.053c0.5-1.211,1.198-2.242,2.092-3.093
		c0.895-0.851,1.957-1.504,3.185-1.961c1.229-0.456,2.571-0.685,4.028-0.685c1.456,0,2.798,0.229,4.027,0.685
		c1.228,0.457,2.289,1.11,3.185,1.961c0.895,0.851,1.592,1.882,2.092,3.093c0.5,1.21,0.752,2.562,0.752,4.053
		s-0.252,2.843-0.752,4.054s-1.197,2.241-2.092,3.092c-0.896,0.853-1.957,1.506-3.185,1.962C42.568,21.771,41.227,22,39.771,22
		c-1.457,0-2.799-0.229-4.028-0.685c-1.228-0.456-2.29-1.109-3.185-1.962c-0.895-0.851-1.592-1.881-2.092-3.092
		S29.715,13.699,29.715,12.208z M33.98,12.208c0,0.878,0.135,1.682,0.408,2.408c0.272,0.728,0.662,1.36,1.171,1.896
		c0.508,0.536,1.119,0.952,1.829,1.249c0.71,0.3,1.504,0.448,2.382,0.448c0.877,0,1.671-0.148,2.382-0.448
		c0.711-0.297,1.319-0.713,1.829-1.249c0.509-0.535,0.899-1.168,1.173-1.896c0.271-0.727,0.408-1.53,0.408-2.408
		c0-0.859-0.138-1.658-0.408-2.395c-0.273-0.737-0.664-1.373-1.173-1.908c-0.51-0.535-1.118-0.952-1.829-1.25
		c-0.71-0.298-1.504-0.447-2.382-0.447c-0.878,0-1.672,0.149-2.382,0.447s-1.321,0.715-1.829,1.25
		C35.05,8.44,34.66,9.076,34.388,9.813C34.115,10.55,33.98,11.349,33.98,12.208z"/>
	<path fill="#00ADFF" d="M52.615,2.89h7.212c0.947,0,1.846,0.092,2.698,0.277c0.851,0.184,1.596,0.491,2.237,0.921
		c0.64,0.43,1.147,1.01,1.526,1.737c0.377,0.728,0.565,1.636,0.565,2.725c0,1.315-0.343,2.434-1.026,3.356
		c-0.685,0.92-1.685,1.504-3,1.749l4.738,7.87h-4.924l-3.895-7.448h-2.027v7.448h-4.105V2.89z M56.721,10.603h2.422
		c0.368,0,0.759-0.013,1.171-0.04s0.785-0.105,1.119-0.237c0.333-0.131,0.61-0.338,0.829-0.619c0.22-0.28,0.328-0.675,0.328-1.185
		c0-0.474-0.096-0.851-0.289-1.131s-0.438-0.496-0.736-0.645c-0.299-0.149-0.642-0.25-1.026-0.303
		c-0.387-0.053-0.764-0.079-1.133-0.079h-2.685V10.603z"/>
	<path fill="#00ADFF" d="M69.828,2.89h12.66v3.791h-8.554v3.475h8.081v3.79h-8.081v3.789h9.028v3.791H69.828V2.89z"/>
</g>
</svg>
